PathFileType	4	(X/Y/Z)	OpenSim_Sub02_CSStiffKnee_Gyro.trc
DataRate	CameraRate	NumFrames	NumMarkers	Units	OrigDataRate	OrigDataStartFrame	OrigNumFrames
100	100	34	8	m	100	5169	6891
Frame#	Time	torso_imu_offset_imu	pelvis_imu_offset_imu	tibia_r_imu_offset_imu	femur_r_imu_offset_imu	tibia_l_imu_offset_imu	femur_l_imu_offset_imu	toes_r_imu_offset_imu	toes_l_imu_offset_imu
				X1	Y1	Z1	X2	Y2	Z2	X3	Y3	Z3	X4	Y4	Z4	X5	Y5	Z5	X6	Y6	Z6	X7	Y7	Z7	X8		Y8	Z8	

5169	51.68000000	-0.00102599	-0.13323493	0.13495446	0.12855844	0.28576726	-0.02864431	-1.17450303	0.27689567	4.77455308	0.39197181	-0.22626571	-0.66871105	0.36999713	0.37038869	0.82161289	0.94774819	0.02672084	0.73311622	-0.26888229	5.03839394	2.27553316	-0.12455213	-0.30794469	0.42628487
5170	51.69000000	0.04336255	-0.10902295	0.14778272	0.16082595	0.27348294	-0.03564841	-1.60485910	0.14664773	4.94569347	0.05060671	-0.24046358	-0.90601035	0.35718388	0.34427535	0.86068379	0.86274258	0.04704006	0.76151024	-0.21767892	4.70916272	2.33812302	-0.12704513	-0.36190221	0.45870571
5171	51.70000000	0.07824132	-0.07538971	0.14683663	0.17969140	0.27048014	-0.04061267	-1.40866371	0.04318109	5.04974446	-0.31665466	-0.20404680	-1.10939896	0.42613202	0.35566036	0.88419615	0.74375630	0.05656503	0.77185163	-0.12676854	4.25927828	2.20475099	-0.09377321	-0.42279269	0.47072580
5172	51.71000000	0.09108772	-0.04855972	0.15270221	0.17000743	0.25903212	-0.05420651	-0.40848764	0.05267202	4.87461636	-0.70042235	-0.15396033	-1.25080165	0.45113987	0.35953405	0.89601991	0.61195496	0.09176495	0.78698782	-0.23605286	3.76076832	1.92483587	-0.10185706	-0.51067420	0.46784221
5173	51.72000000	0.10804976	-0.05620659	0.18123339	0.13122486	0.20676824	-0.08542514	1.04483794	0.15194130	4.44228764	-1.07614236	-0.15673681	-1.33452777	0.49964179	0.40700931	0.89800466	0.55559538	0.12784925	0.81367837	-0.40036109	3.21956488	1.46336667	-0.07276296	-0.61478786	0.44970734
5174	51.73000000	0.10769430	-0.08678078	0.22759536	0.07387923	0.09366180	-0.10463554	2.11957971	0.29431451	3.92701502	-1.24262669	-0.20431810	-1.32319500	0.45026206	0.47258102	0.94561502	0.53699636	0.19108589	0.83298509	0.05046104	2.46059626	0.84850370	-0.02862446	-0.74337983	0.41274216
5175	51.74000000	0.09008480	-0.10585441	0.26792892	-0.01286114	-0.00728637	-0.09580027	2.35189213	0.42677232	3.45582221	-1.04060693	-0.21939590	-1.26719123	0.32538984	0.52424883	1.02819102	0.54153936	0.27490861	0.84394825	0.51300835	1.86672100	0.32848171	-0.04392226	-0.84912018	0.36549354
5176	51.75000000	0.03906604	-0.13132121	0.29436410	-0.09810200	-0.07410242	-0.07524694	1.77514789	0.45166995	2.99070656	-0.51818854	-0.18334403	-1.18387244	0.15789281	0.60721679	1.10114163	0.54399554	0.34414182	0.84397321	0.02202796	1.28911174	0.16941877	-0.00675640	-0.99197959	0.31740040
5177	51.76000000	-0.03453412	-0.17616486	0.32910938	-0.14324163	-0.12109044	-0.06015990	0.71711610	0.29209963	2.40345863	0.04085616	-0.04427938	-0.99387056	0.01239298	0.65595339	1.15027521	0.51886458	0.40701958	0.82340605	-0.47685149	0.82697197	0.28017636	0.00432716	-1.15175662	0.29961560
5178	51.77000000	-0.06761676	-0.20035997	0.35442559	-0.18646466	-0.14913382	-0.04927952	-0.07632880	0.01183458	1.49271481	0.25820105	0.17118174	-0.64707749	-0.12270399	0.73562144	1.27514599	0.41549068	0.43256403	0.74560941	-0.26688760	0.35813736	0.51213355	0.00033551	-1.36627057	0.28919970
5179	51.78000000	-0.06776165	-0.18410031	0.35687543	-0.21877055	-0.14309642	-0.02975081	-0.54422997	-0.26680003	0.34360887	-0.06810991	0.34246171	-0.16342215	-0.16202616	0.83233240	1.45414672	0.23384761	0.39866107	0.62163339	-0.06297624	-0.28308098	0.66013813	-0.01330957	-1.61901518	0.31455593
5180	51.79000000	-0.04370590	-0.09846554	0.35712573	-0.21428772	-0.14634456	0.00824223	-0.83332392	-0.45374581	-0.62849766	-0.65297172	0.32908202	0.26614252	-0.11688094	0.96133437	1.59468771	0.04499615	0.35347069	0.46790161	0.40657594	-1.03564544	0.58929816	0.00400884	-1.86241251	0.31506032
5181	51.80000000	0.01271395	-0.04744274	0.33982656	-0.14427168	-0.15416369	0.07087526	-0.89622420	-0.44759717	-1.31002621	-0.98728140	0.13666701	0.43044416	-0.02720368	1.05494742	1.76082129	-0.05457253	0.33417633	0.30535542	1.41116262	-2.01790863	0.28455619	0.04673790	-2.17706082	0.29226272
5182	51.81000000	0.08473014	0.00411164	0.30711816	-0.00125681	-0.11339276	0.12455680	-0.62221079	-0.39824901	-2.00282908	-0.95452053	-0.17691620	0.39165089	0.11069084	1.16004310	1.90730249	-0.05544319	0.36528006	0.17844549	-0.84660587	-3.13732980	-0.11586766	0.10514191	-2.52197673	0.27329321
5183	51.82000000	0.09685257	0.12205093	0.28228918	0.14054441	0.03354691	0.19832274	0.07412943	-0.59583608	-2.70633588	-0.66082543	-0.83498146	0.22311638	0.17022579	1.25360985	2.06424549	-0.06007674	0.43198379	-0.01320073	-5.08293713	-4.02405182	-1.00589124	0.13103921	-2.96246451	0.24433112
5184	51.83000000	0.05974198	0.23315409	0.27828197	0.07568217	0.16175606	0.32504803	0.34408405	-1.12675383	-2.60178309	-0.20025537	-1.73446443	-0.20490353	0.11564883	1.34961663	2.22297930	-0.08897618	0.53734916	-0.22173729	2.83258912	-3.52995447	-1.54848028	0.13159697	-3.54158282	0.23205611
5185	51.84000000	-0.08332723	0.24723121	0.32168215	-0.19537094	0.10782155	0.44854774	-0.98255750	-1.85468061	-1.37357487	0.00587354	-1.69143611	-0.62117623	-0.03203558	1.41929188	2.35693146	-0.14538945	0.59413905	-0.41481819	2.44147726	-3.11881892	-0.43772251	0.07110438	-4.15705286	0.28747585
5186	51.85000000	-0.27073589	0.17336791	0.43057859	-0.32594182	-0.06752510	0.49787200	-2.06891372	-1.20706693	-0.53533776	0.36942143	-0.59105915	-0.35416925	-0.14243701	1.37748131	2.44777185	-0.22754567	0.57647453	-0.62555551	1.42765476	-0.96109749	0.17189867	-0.16080126	-4.83120043	0.42550425
5187	51.86000000	-0.34088768	0.14575492	0.47332633	-0.31220173	-0.13647744	0.45247835	0.75706169	1.06873069	-1.25155162	1.50819498	0.43487245	0.04422765	-0.18964329	1.32786459	2.50905768	-0.32801670	0.53304497	-0.81733562	4.34689633	0.09844436	-0.23445468	-0.14828763	-5.47948091	0.61826823
5188	51.87000000	-0.32191682	0.13440690	0.36971890	-0.17639071	-0.12051020	0.30247076	3.59715539	1.95341039	-2.22674187	2.17605634	0.33040435	0.17987478	-0.19420644	1.20134541	2.65133190	-0.28138580	0.47648586	-1.02478143	-2.00936478	-0.60032350	-0.45345907	-0.32763082	-6.16422119	0.87059795
5189	51.88000000	-0.25929280	0.06569520	0.23639701	0.08161305	-0.12330956	0.13681905	3.49941987	1.14579726	-2.11227196	1.56381968	-0.67396527	0.27517884	-0.02400651	0.93463009	2.73574579	-0.01841499	0.50024816	-1.20864125	-0.75019850	-0.68750395	-0.04961906	-0.63387741	-6.78677012	1.09900087
5190	51.89000000	-0.10813725	-0.00839085	0.18186391	0.34880802	-0.07696787	0.05568480	1.76013783	-0.21450693	-1.60600049	1.03411229	-0.71633899	0.29359992	-0.01121813	0.80986688	2.69902777	0.22629617	0.57122971	-1.34243473	2.03492485	0.10154524	0.05032847	-0.80277275	-7.24944266	1.18420733
5191	51.90000000	0.10831243	-0.06344423	0.17424067	0.54329539	-0.03741749	0.08085613	0.40384061	-1.00008213	-1.44183211	0.61487070	-0.55089772	-0.19926639	-0.31573808	0.89911925	2.69704294	0.26832347	0.61368867	-1.40913499	-0.88585319	-0.24828266	-0.01606636	0.16819536	-7.19594755	1.13016810
5192	51.91000000	0.33679647	-0.10928204	0.20440336	0.63681389	-0.00154418	0.15214208	0.64676782	-0.49110972	-1.41126963	-0.04417320	-0.66474823	-1.09603850	0.21023187	0.92439439	2.77262866	0.18111565	0.54668426	-1.41194596	0.08319519	-0.12809865	0.07073240	1.00740650	-6.81318728	1.19716041
5193	51.92000000	0.49666109	-0.12313429	0.25178948	0.62215163	0.05938874	0.24368728	1.46308776	0.26206799	-1.03700460	-0.55127425	-0.67926548	-1.85673670	1.39570982	0.88991629	2.64517819	0.18559618	0.36053446	-1.42744567	0.01671635	-0.22789841	0.03272702	2.24808764	-5.78808295	1.16596810
5194	51.93000000	0.55105371	-0.10525957	0.31122787	0.50772763	0.15358629	0.28425714	0.94409125	-0.16619066	-0.42052567	-0.91014862	-0.55226502	-2.21805085	1.66466859	0.98115229	2.39720549	0.23742211	0.17824284	-1.50938268	-0.35860620	-0.21040139	0.01596749	3.17624454	-4.56048111	1.50679567
5195	51.94000000	0.51631320	-0.08044579	0.38212167	0.38036345	0.24097237	0.23652993	-1.20154335	-0.82883444	-0.40118568	-1.15973032	-0.39958283	-2.08195882	1.28959408	0.92788306	2.17801728	0.32011551	-0.02328734	-1.64389033	-0.06260283	-0.16183193	-0.01943404	3.37279011	-3.14894889	1.86540220
5196	51.95000000	0.43879589	-0.06122238	0.42715532	0.31993960	0.29873876	0.09486265	-2.52446841	-0.74835018	-1.01598903	-1.10493214	-0.29979555	-1.54039642	0.76129090	0.53573330	1.95744725	0.33277055	-0.19134957	-1.71058655	-0.16631953	-0.23490275	-0.07607614	2.48190254	-0.87437866	2.25197147
5197	51.96000000	0.36155267	-0.04579948	0.42005772	0.31526592	0.32122365	-0.08973095	-2.23103373	-0.38861747	-1.22021295	-0.82023250	-0.30107601	-0.96879680	0.40012264	0.09020801	1.59234036	0.07416871	-0.30808397	-1.64703860	-0.00785226	-0.24073816	-0.07196704	1.82737327	0.12543443	2.66874113
5198	51.97000000	0.34102651	-0.03819880	0.34951281	0.31827868	0.30278623	-0.27469747	-1.42044559	-0.14048621	-0.86270026	-0.45093167	-0.41973034	-0.60455274	1.01196353	-0.13810066	1.05203667	-0.25066650	-0.40376390	-1.53321788	-0.04327645	-0.22916395	-0.08036095	1.65306436	1.55256782	2.41821602
5199	51.98000000	0.38035491	-0.04782171	0.26720479	0.35832337	0.25831969	-0.41729830	-1.10235970	-0.14376161	-0.57003328	-0.07382361	-0.55072470	-0.51028225	2.47327920	-0.17577472	0.58093238	-0.59031228	-0.40926696	-1.34750673	-0.00613244	-0.25124815	-0.06224790	0.48784497	2.13035354	1.91786834
5200	51.99000000	0.44064288	-0.09271093	0.15962604	0.39540340	0.17833635	-0.50803311	-0.78882711	-0.15335906	-0.60562895	0.20555158	-0.55444790	-0.64606201	3.14949325	-0.15206045	0.22471365	-0.78402442	-0.33529621	-1.10559064	0.02298625	-0.25658035	-0.06249859	-0.15442489	2.24221782	1.15468926
5201	52.00000000	0.48975502	-0.18355201	0.05911124	0.43139812	0.07260161	-0.54159244	0.17820381	-0.12928569	-0.74785135	0.25536768	-0.47445948	-0.90452424	3.05187859	-0.23964276	-0.13164342	-0.85847747	-0.20215767	-0.95006273	0.05094748	-0.26248243	-0.09042484	-0.15507379	2.15342807	0.31976071
5202	52.01000000	0.53224831	-0.26657105	0.01578431	0.45910649	-0.04550133	-0.51977710	1.21343281	-0.16109654	-0.71412358	0.15597469	-0.44995784	-1.13715677	2.68818767	-0.48494655	-0.48610161	-0.86901309	-0.08400330	-0.86521276	0.08576746	-0.23377639	-0.12534657	0.01723934	2.13776194	-0.46777020
